<?xml version="1.0" encoding="UTF-8"?><svg id="b" xmlns="http://www.w3.org/2000/svg" viewBox="0 0 52 56"><defs><style>.e{fill:#28497c;}</style></defs><g id="c"><g id="d"><g><polygon class="e" points="48 4 38 4 38 0 26 0 26 4 16 4 12 4 12 4 12 8 12 8 12 18 16 18 16 8 26 8 38 8 48 8 48 42 36 42 36 46 48 46 52 46 52 42 52 8 52 4 48 4"/><polygon class="e" points="20.91 35.91 38 18.83 38 24 42 28 42 16 42 12 38 12 26 12 30 16 35.17 16 18.09 33.09 20.91 35.91"/><polygon class="e" points="28 52 4 52 4 26 21 26 25 22 0 22 0 56 32 56 32 29 28 33 28 52"/></g></g></g></svg>