<?xml version="1.0" encoding="UTF-8" standalone="no"?>
<svg
    xmlns="http://www.w3.org/2000/svg"
    version="1.1"
    x="0px"
    y="0px"
    viewBox="0 0 147.62263 200"
    width="147.62263"
    height="200">

    <path
        d="M 145.56544,96.078432 7.466848,0.838031 C 6.004908,-0.166759 4.1096235,-0.271529 2.5476809,0.542781 0.9809762,1.366611 0,2.985701 0,4.757171 V 195.23798 c 0,1.77147 0.9809762,3.39532 2.5476809,4.21915 C 3.2429358,199.81904 4.0048591,200 4.76202,200 c 0.947642,0 1.890522,-0.28572 2.704828,-0.84288 l 138.098592,-95.2404 c 1.2905,-0.8905 2.05719,-2.35244 2.05719,-3.919145 0,-1.566705 -0.77145,-3.028645 -2.05719,-3.919143 z M 9.524041,186.17109 V 13.828821 L 134.47469,100.00234 Z"
        style="stroke-width:4.76202011"/>
    <path
        style="fill:#ffffff;stroke:none;stroke-width:8.47457981;stroke-miterlimit:4;stroke-dasharray:none"
        d="M 9.571617,99.999956 V 14.325441 l 9.571943,6.60843 c 5.26457,3.63463 33.095831,22.81606 61.847243,42.625391 28.751417,19.809333 52.275297,36.207645 52.275297,36.440694 0,0.233054 -23.52388,16.631364 -52.275297,36.440694 -28.751412,19.80933 -56.582673,38.99076 -61.847243,42.62539 l -9.571943,6.60844 z"/>
    <path
        style="fill:#ffffff;stroke:none;stroke-width:8.47457981;stroke-miterlimit:4;stroke-dasharray:none"
        d="M 9.571617,99.999956 V 14.291281 l 2.330509,1.62627 c 2.103238,1.46767 110.653854,76.318797 118.188234,81.496747 1.7302,1.189057 3.14581,2.352609 3.14581,2.585658 0,0.233054 -1.41561,1.396604 -3.14581,2.585664 -7.53438,5.17795 -116.084996,80.02907 -118.188234,81.49674 l -2.330509,1.62627 z"/>
</svg>
