<?xml version="1.0" encoding="UTF-8" standalone="no"?>
<svg
   xmlns:dc="http://purl.org/dc/elements/1.1/"
   xmlns:cc="http://creativecommons.org/ns#"
   xmlns:rdf="http://www.w3.org/1999/02/22-rdf-syntax-ns#"
   xmlns:svg="http://www.w3.org/2000/svg"
   xmlns="http://www.w3.org/2000/svg"
   xmlns:sodipodi="http://sodipodi.sourceforge.net/DTD/sodipodi-0.dtd"
   xmlns:inkscape="http://www.inkscape.org/namespaces/inkscape"
   width="210mm"
   height="297mm"
   viewBox="0 0 210 297"
   version="1.1"
   id="svg8"
   inkscape:version="1.0.1 (3bc2e813f5, 2020-09-07)"
   sodipodi:docname="live.svg">
  <defs
     id="defs2" />
  <sodipodi:namedview
     id="base"
     pagecolor="#ffffff"
     bordercolor="#666666"
     borderopacity="1.0"
     inkscape:pageopacity="0.0"
     inkscape:pageshadow="2"
     inkscape:zoom="1.01"
     inkscape:cx="428.9837"
     inkscape:cy="558.13296"
     inkscape:document-units="mm"
     inkscape:current-layer="layer1"
     inkscape:document-rotation="0"
     showgrid="false"
     inkscape:window-width="1720"
     inkscape:window-height="1376"
     inkscape:window-x="26"
     inkscape:window-y="23"
     inkscape:window-maximized="0" />
  <metadata
     id="metadata5">
    <rdf:RDF>
      <cc:Work
         rdf:about="">
        <dc:format>image/svg+xml</dc:format>
        <dc:type
           rdf:resource="http://purl.org/dc/dcmitype/StillImage" />
        <dc:title></dc:title>
      </cc:Work>
    </rdf:RDF>
  </metadata>
  <g
     inkscape:label="Ebene 1"
     inkscape:groupmode="layer"
     id="layer1">
    <rect
       style="fill:none;stroke:none;stroke-width:2.64583;stroke-miterlimit:4;stroke-dasharray:none"
       id="rect839"
       width="77.664047"
       height="56.547318"
       x="68.145355"
       y="118.36563" />
    <rect
       style="fill:none;stroke:#ff0000;stroke-width:3.59258;stroke-miterlimit:4;stroke-dasharray:none;stroke-opacity:1"
       id="rect841"
       width="195.30124"
       height="43.834042"
       x="8.0860081"
       y="5.028399" />
    <g
       aria-label="LIVESTREAM"
       id="text845"
       style="font-style:normal;font-weight:normal;font-size:25.4px;line-height:1.25;font-family:sans-serif;letter-spacing:0px;word-spacing:0px;fill:#ff0000;fill-opacity:1;stroke:none;stroke-width:0.264583">
      <path
         d="m 18.213184,17.477728 h 4.774902 v 14.907617 h 8.383984 v 3.609082 H 18.213184 Z"
         style="font-style:normal;font-variant:normal;font-weight:bold;font-stretch:normal;font-size:25.4px;font-family:sans-serif;-inkscape-font-specification:'sans-serif Bold';fill:#ff0000;stroke-width:0.264583"
         id="path900" />
      <path
         d="m 34.398242,17.477728 h 4.774903 v 18.516699 h -4.774903 z"
         style="font-style:normal;font-variant:normal;font-weight:bold;font-stretch:normal;font-size:25.4px;font-family:sans-serif;-inkscape-font-specification:'sans-serif Bold';fill:#ff0000;stroke-width:0.264583"
         id="path902" />
      <path
         d="m 41.64121,17.477728 h 4.799707 L 51.352245,31.14511 56.25117,17.477728 h 4.799707 l -6.858496,18.516699 h -5.692675 z"
         style="font-style:normal;font-variant:normal;font-weight:bold;font-stretch:normal;font-size:25.4px;font-family:sans-serif;-inkscape-font-specification:'sans-serif Bold';fill:#ff0000;stroke-width:0.264583"
         id="path904" />
      <path
         d="m 63.506542,17.477728 h 12.886035 v 3.609082 h -8.111133 v 3.447851 h 7.627441 v 3.609082 h -7.627441 v 4.241602 h 8.383984 v 3.609082 H 63.506542 Z"
         style="font-style:normal;font-variant:normal;font-weight:bold;font-stretch:normal;font-size:25.4px;font-family:sans-serif;-inkscape-font-specification:'sans-serif Bold';fill:#ff0000;stroke-width:0.264583"
         id="path906" />
      <path
         d="m 93.743456,18.060638 v 3.919141 q -1.525488,-0.682129 -2.976562,-1.029395 -1.451074,-0.347266 -2.740918,-0.347266 -1.711524,0 -2.530078,0.471289 -0.818555,0.471289 -0.818555,1.463477 0,0.744141 0.545703,1.16582 0.558106,0.409278 2.00918,0.706934 l 2.033984,0.409277 q 3.088184,0.620117 4.39043,1.885156 1.302246,1.265039 1.302246,3.59668 0,3.063379 -1.823145,4.564062 -1.810742,1.488282 -5.543847,1.488282 -1.761133,0 -3.534668,-0.334864 -1.773535,-0.334863 -3.54707,-0.992187 v -4.030762 q 1.773535,0.942578 3.423046,1.42627 1.661915,0.471289 3.199805,0.471289 1.562695,0 2.393652,-0.520899 0.830957,-0.520898 0.830957,-1.488281 0,-0.868164 -0.570507,-1.339453 -0.558106,-0.471289 -2.244825,-0.843359 l -1.847949,-0.409278 q -2.778125,-0.595312 -4.067968,-1.897558 -1.277442,-1.302246 -1.277442,-3.509863 0,-2.765723 1.785938,-4.254004 1.785937,-1.488281 5.13457,-1.488281 1.525488,0 3.137793,0.235644 1.612304,0.223242 3.33623,0.682129 z"
         style="font-style:normal;font-variant:normal;font-weight:bold;font-stretch:normal;font-size:25.4px;font-family:sans-serif;-inkscape-font-specification:'sans-serif Bold';fill:#ff0000;stroke-width:0.264583"
         id="path908" />
      <path
         d="m 96.943257,17.477728 h 17.065623 v 3.609082 h -6.13916 v 14.907617 h -4.7749 V 21.08681 h -6.151563 z"
         style="font-style:normal;font-variant:normal;font-weight:bold;font-stretch:normal;font-size:25.4px;font-family:sans-serif;-inkscape-font-specification:'sans-serif Bold';fill:#ff0000;stroke-width:0.264583"
         id="path910" />
      <path
         d="m 123.26104,25.688079 q 1.50068,0 2.1456,-0.558105 0.65733,-0.558106 0.65733,-1.835547 0,-1.265039 -0.65733,-1.810742 -0.64492,-0.545703 -2.1456,-0.545703 h -2.00918 v 4.750097 z m -2.00918,3.299024 v 7.007324 h -4.77491 V 17.477728 h 7.29258 q 3.65869,0 5.35782,1.227832 1.71152,1.227832 1.71152,3.881933 0,1.835547 -0.89297,3.01377 -0.88057,1.178222 -2.6665,1.736328 0.97978,0.223242 1.74873,1.016992 0.78134,0.781348 1.57509,2.38125 l 2.59209,5.258594 h -5.08496 l -2.25722,-4.60127 q -0.68213,-1.389062 -1.38907,-1.897558 -0.69453,-0.508496 -1.86035,-0.508496 z"
         style="font-style:normal;font-variant:normal;font-weight:bold;font-stretch:normal;font-size:25.4px;font-family:sans-serif;-inkscape-font-specification:'sans-serif Bold';fill:#ff0000;stroke-width:0.264583"
         id="path912" />
      <path
         d="m 136.03545,17.477728 h 12.88603 v 3.609082 h -8.11113 v 3.447851 h 7.62744 v 3.609082 h -7.62744 v 4.241602 h 8.38399 v 3.609082 h -13.15889 z"
         style="font-style:normal;font-variant:normal;font-weight:bold;font-stretch:normal;font-size:25.4px;font-family:sans-serif;-inkscape-font-specification:'sans-serif Bold';fill:#ff0000;stroke-width:0.264583"
         id="path914" />
      <path
         d="m 164.62285,32.620989 h -7.46621 l -1.17822,3.373438 h -4.79971 l 6.85849,-18.516699 h 5.69268 l 6.8585,18.516699 h -4.79971 z m -6.27559,-3.435449 h 5.07256 l -2.53008,-7.366992 z"
         style="font-style:normal;font-variant:normal;font-weight:bold;font-stretch:normal;font-size:25.4px;font-family:sans-serif;-inkscape-font-specification:'sans-serif Bold';fill:#ff0000;stroke-width:0.264583"
         id="path916" />
      <path
         d="m 173.04404,17.477728 h 6.07715 l 4.2168,9.909472 4.2416,-9.909472 h 6.06474 v 18.516699 h -4.51445 V 22.451068 l -4.26641,9.983886 h -3.02617 l -4.2664,-9.983886 v 13.543359 h -4.52686 z"
         style="font-style:normal;font-variant:normal;font-weight:bold;font-stretch:normal;font-size:25.4px;font-family:sans-serif;-inkscape-font-specification:'sans-serif Bold';fill:#ff0000;stroke-width:0.264583"
         id="path918" />
    </g>
  </g>
</svg>
